<svg xmlns="http://www.w3.org/2000/svg" viewBox="0 0 792 200" width="100%" preserveAspectRatio="xMidYMid slice"><rect width="100%" height="100%" fill="#000"/><style>text{font-family:Consolas,Menlo,monospace;font-size:16px;font-weight:700;fill:#00FF41;text-anchor:middle}.h{fill:#fff}.o0{opacity:0.08}.o1{opacity:0.16}.o2{opacity:0.23}.o3{opacity:0.31}.o4{opacity:0.39}.o5{opacity:0.47}.o6{opacity:0.54}.o7{opacity:0.62}.o8{opacity:0.7}.o9{opacity:0.78}.o10{opacity:0.85}.o11{opacity:0.93}</style><g><animateTransform attributeName="transform" type="translate" from="0,-256" to="0,220" dur="4.5s" begin="-2.5s" repeatCount="indefinite"/><text class="o0" x="11" y="18">フ</text><text class="o1" x="11" y="36">ヒ</text><text class="o2" x="11" y="54">マ</text><text class="o3" x="11" y="72">ヤ</text><text class="o4" x="11" y="90">サ</text><text class="o5" x="11" y="108">コ</text><text class="o6" x="11" y="126">マ</text><text class="o7" x="11" y="144">ヘ</text><text class="o8" x="11" y="162">ラ</text><text class="o9" x="11" y="180">ヨ</text><text class="o10" x="11" y="198">コ</text><text class="h" x="11" y="216">オ</text></g><g><animateTransform attributeName="transform" type="translate" from="0,-256" to="0,220" dur="4.5s" begin="-0.6s" repeatCount="indefinite"/><text class="o0" x="33" y="18">ム</text><text class="o1" x="33" y="36">ロ</text><text class="o2" x="33" y="54">ラ</text><text class="o3" x="33" y="72">ア</text><text class="o4" x="33" y="90">ユ</text><text class="o5" x="33" y="108">ネ</text><text class="o6" x="33" y="126">ヒ</text><text class="o7" x="33" y="144">リ</text><text class="o8" x="33" y="162">ヨ</text><text class="o9" x="33" y="180">リ</text><text class="o10" x="33" y="198">ケ</text><text class="h" x="33" y="216">ヨ</text></g><g><animateTransform attributeName="transform" type="translate" from="0,-256" to="0,220" dur="2.5s" begin="-1.3s" repeatCount="indefinite"/><text class="o0" x="55" y="18">イ</text><text class="o1" x="55" y="36">ア</text><text class="o2" x="55" y="54">サ</text><text class="o3" x="55" y="72">セ</text><text class="o4" x="55" y="90">ユ</text><text class="o5" x="55" y="108">1</text><text class="o6" x="55" y="126">フ</text><text class="o7" x="55" y="144">テ</text><text class="o8" x="55" y="162">ヒ</text><text class="o9" x="55" y="180">ヤ</text><text class="o10" x="55" y="198">サ</text><text class="h" x="55" y="216">ミ</text></g><g><animateTransform attributeName="transform" type="translate" from="0,-256" to="0,220" dur="3.5s" begin="-1.0s" repeatCount="indefinite"/><text class="o0" x="77" y="18">0</text><text class="o1" x="77" y="36">ル</text><text class="o2" x="77" y="54">エ</text><text class="o3" x="77" y="72">フ</text><text class="o4" x="77" y="90">リ</text><text class="o5" x="77" y="108">タ</text><text class="o6" x="77" y="126">ノ</text><text class="o7" x="77" y="144">メ</text><text class="o8" x="77" y="162">エ</text><text class="o9" x="77" y="180">ソ</text><text class="o10" x="77" y="198">テ</text><text class="h" x="77" y="216">ス</text></g><g><animateTransform attributeName="transform" type="translate" from="0,-256" to="0,220" dur="4.8s" begin="-0.1s" repeatCount="indefinite"/><text class="o0" x="99" y="18">モ</text><text class="o1" x="99" y="36">オ</text><text class="o2" x="99" y="54">ネ</text><text class="o3" x="99" y="72">オ</text><text class="o4" x="99" y="90">チ</text><text class="o5" x="99" y="108">ヌ</text><text class="o6" x="99" y="126">ウ</text><text class="o7" x="99" y="144">1</text><text class="o8" x="99" y="162">レ</text><text class="o9" x="99" y="180">0</text><text class="o10" x="99" y="198">シ</text><text class="h" x="99" y="216">シ</text></g><g><animateTransform attributeName="transform" type="translate" from="0,-256" to="0,220" dur="6.7s" begin="-0.4s" repeatCount="indefinite"/><text class="o0" x="121" y="18">ヌ</text><text class="o1" x="121" y="36">ネ</text><text class="o2" x="121" y="54">ノ</text><text class="o3" x="121" y="72">ウ</text><text class="o4" x="121" y="90">モ</text><text class="o5" x="121" y="108">ラ</text><text class="o6" x="121" y="126">サ</text><text class="o7" x="121" y="144">レ</text><text class="o8" x="121" y="162">タ</text><text class="o9" x="121" y="180">ト</text><text class="o10" x="121" y="198">エ</text><text class="h" x="121" y="216">ツ</text></g><g><animateTransform attributeName="transform" type="translate" from="0,-256" to="0,220" dur="3.9s" begin="-3.8s" repeatCount="indefinite"/><text class="o0" x="143" y="18">カ</text><text class="o1" x="143" y="36">キ</text><text class="o2" x="143" y="54">セ</text><text class="o3" x="143" y="72">オ</text><text class="o4" x="143" y="90">0</text><text class="o5" x="143" y="108">イ</text><text class="o6" x="143" y="126">フ</text><text class="o7" x="143" y="144">ホ</text><text class="o8" x="143" y="162">コ</text><text class="o9" x="143" y="180">レ</text><text class="o10" x="143" y="198">メ</text><text class="h" x="143" y="216">サ</text></g><g><animateTransform attributeName="transform" type="translate" from="0,-256" to="0,220" dur="4.5s" begin="-0.9s" repeatCount="indefinite"/><text class="o0" x="165" y="18">キ</text><text class="o1" x="165" y="36">ノ</text><text class="o2" x="165" y="54">リ</text><text class="o3" x="165" y="72">ヌ</text><text class="o4" x="165" y="90">カ</text><text class="o5" x="165" y="108">ネ</text><text class="o6" x="165" y="126">ノ</text><text class="o7" x="165" y="144">シ</text><text class="o8" x="165" y="162">0</text><text class="o9" x="165" y="180">タ</text><text class="o10" x="165" y="198">ヤ</text><text class="h" x="165" y="216">ツ</text></g><g><animateTransform attributeName="transform" type="translate" from="0,-256" to="0,220" dur="7.0s" begin="-0.1s" repeatCount="indefinite"/><text class="o0" x="187" y="18">コ</text><text class="o1" x="187" y="36">ネ</text><text class="o2" x="187" y="54">ユ</text><text class="o3" x="187" y="72">リ</text><text class="o4" x="187" y="90">モ</text><text class="o5" x="187" y="108">オ</text><text class="o6" x="187" y="126">ア</text><text class="o7" x="187" y="144">ク</text><text class="o8" x="187" y="162">シ</text><text class="o9" x="187" y="180">ヒ</text><text class="o10" x="187" y="198">ソ</text><text class="h" x="187" y="216">0</text></g><g><animateTransform attributeName="transform" type="translate" from="0,-256" to="0,220" dur="6.0s" begin="-2.0s" repeatCount="indefinite"/><text class="o0" x="209" y="18">チ</text><text class="o1" x="209" y="36">ヌ</text><text class="o2" x="209" y="54">ウ</text><text class="o3" x="209" y="72">ウ</text><text class="o4" x="209" y="90">エ</text><text class="o5" x="209" y="108">シ</text><text class="o6" x="209" y="126">ヤ</text><text class="o7" x="209" y="144">ラ</text><text class="o8" x="209" y="162">セ</text><text class="o9" x="209" y="180">0</text><text class="o10" x="209" y="198">ユ</text><text class="h" x="209" y="216">ニ</text></g><g><animateTransform attributeName="transform" type="translate" from="0,-256" to="0,220" dur="4.1s" begin="-1.9s" repeatCount="indefinite"/><text class="o0" x="231" y="18">ヤ</text><text class="o1" x="231" y="36">ヘ</text><text class="o2" x="231" y="54">モ</text><text class="o3" x="231" y="72">キ</text><text class="o4" x="231" y="90">ヌ</text><text class="o5" x="231" y="108">コ</text><text class="o6" x="231" y="126">ラ</text><text class="o7" x="231" y="144">ク</text><text class="o8" x="231" y="162">ツ</text><text class="o9" x="231" y="180">ス</text><text class="o10" x="231" y="198">ヨ</text><text class="h" x="231" y="216">セ</text></g><g><animateTransform attributeName="transform" type="translate" from="0,-256" to="0,220" dur="5.7s" begin="-0.9s" repeatCount="indefinite"/><text class="o0" x="253" y="18">ラ</text><text class="o1" x="253" y="36">メ</text><text class="o2" x="253" y="54">サ</text><text class="o3" x="253" y="72">レ</text><text class="o4" x="253" y="90">ヌ</text><text class="o5" x="253" y="108">ヘ</text><text class="o6" x="253" y="126">ユ</text><text class="o7" x="253" y="144">エ</text><text class="o8" x="253" y="162">ノ</text><text class="o9" x="253" y="180">イ</text><text class="o10" x="253" y="198">オ</text><text class="h" x="253" y="216">オ</text></g><g><animateTransform attributeName="transform" type="translate" from="0,-256" to="0,220" dur="2.6s" begin="-2.5s" repeatCount="indefinite"/><text class="o0" x="275" y="18">セ</text><text class="o1" x="275" y="36">ネ</text><text class="o2" x="275" y="54">ソ</text><text class="o3" x="275" y="72">ノ</text><text class="o4" x="275" y="90">ユ</text><text class="o5" x="275" y="108">ホ</text><text class="o6" x="275" y="126">チ</text><text class="o7" x="275" y="144">ミ</text><text class="o8" x="275" y="162">コ</text><text class="o9" x="275" y="180">ウ</text><text class="o10" x="275" y="198">キ</text><text class="h" x="275" y="216">ス</text></g><g><animateTransform attributeName="transform" type="translate" from="0,-256" to="0,220" dur="4.6s" begin="-3.0s" repeatCount="indefinite"/><text class="o0" x="297" y="18">ヨ</text><text class="o1" x="297" y="36">ヨ</text><text class="o2" x="297" y="54">ウ</text><text class="o3" x="297" y="72">タ</text><text class="o4" x="297" y="90">シ</text><text class="o5" x="297" y="108">シ</text><text class="o6" x="297" y="126">1</text><text class="o7" x="297" y="144">ウ</text><text class="o8" x="297" y="162">タ</text><text class="o9" x="297" y="180">ノ</text><text class="o10" x="297" y="198">ヒ</text><text class="h" x="297" y="216">セ</text></g><g><animateTransform attributeName="transform" type="translate" from="0,-256" to="0,220" dur="2.7s" begin="-0.5s" repeatCount="indefinite"/><text class="o0" x="319" y="18">ニ</text><text class="o1" x="319" y="36">ミ</text><text class="o2" x="319" y="54">モ</text><text class="o3" x="319" y="72">キ</text><text class="o4" x="319" y="90">エ</text><text class="o5" x="319" y="108">ニ</text><text class="o6" x="319" y="126">キ</text><text class="o7" x="319" y="144">ヒ</text><text class="o8" x="319" y="162">ト</text><text class="o9" x="319" y="180">ル</text><text class="o10" x="319" y="198">ロ</text><text class="h" x="319" y="216">ミ</text></g><g><animateTransform attributeName="transform" type="translate" from="0,-256" to="0,220" dur="5.1s" begin="-0.7s" repeatCount="indefinite"/><text class="o0" x="341" y="18">ア</text><text class="o1" x="341" y="36">1</text><text class="o2" x="341" y="54">ヘ</text><text class="o3" x="341" y="72">ナ</text><text class="o4" x="341" y="90">ロ</text><text class="o5" x="341" y="108">ツ</text><text class="o6" x="341" y="126">ア</text><text class="o7" x="341" y="144">1</text><text class="o8" x="341" y="162">ユ</text><text class="o9" x="341" y="180">ラ</text><text class="o10" x="341" y="198">ウ</text><text class="h" x="341" y="216">ヘ</text></g><g><animateTransform attributeName="transform" type="translate" from="0,-256" to="0,220" dur="2.7s" begin="-0.8s" repeatCount="indefinite"/><text class="o0" x="363" y="18">キ</text><text class="o1" x="363" y="36">ウ</text><text class="o2" x="363" y="54">ウ</text><text class="o3" x="363" y="72">ヒ</text><text class="o4" x="363" y="90">ム</text><text class="o5" x="363" y="108">ニ</text><text class="o6" x="363" y="126">ア</text><text class="o7" x="363" y="144">キ</text><text class="o8" x="363" y="162">ト</text><text class="o9" x="363" y="180">ナ</text><text class="o10" x="363" y="198">エ</text><text class="h" x="363" y="216">レ</text></g><g><animateTransform attributeName="transform" type="translate" from="0,-256" to="0,220" dur="4.6s" begin="-0.4s" repeatCount="indefinite"/><text class="o0" x="385" y="18">ノ</text><text class="o1" x="385" y="36">1</text><text class="o2" x="385" y="54">ホ</text><text class="o3" x="385" y="72">モ</text><text class="o4" x="385" y="90">0</text><text class="o5" x="385" y="108">ヨ</text><text class="o6" x="385" y="126">ル</text><text class="o7" x="385" y="144">ヌ</text><text class="o8" x="385" y="162">ヌ</text><text class="o9" x="385" y="180">ヤ</text><text class="o10" x="385" y="198">0</text><text class="h" x="385" y="216">ユ</text></g><g><animateTransform attributeName="transform" type="translate" from="0,-256" to="0,220" dur="2.7s" begin="-0.2s" repeatCount="indefinite"/><text class="o0" x="407" y="18">カ</text><text class="o1" x="407" y="36">ソ</text><text class="o2" x="407" y="54">ノ</text><text class="o3" x="407" y="72">ト</text><text class="o4" x="407" y="90">ヌ</text><text class="o5" x="407" y="108">ロ</text><text class="o6" x="407" y="126">ヤ</text><text class="o7" x="407" y="144">フ</text><text class="o8" x="407" y="162">ヒ</text><text class="o9" x="407" y="180">フ</text><text class="o10" x="407" y="198">ム</text><text class="h" x="407" y="216">エ</text></g><g><animateTransform attributeName="transform" type="translate" from="0,-256" to="0,220" dur="4.8s" begin="-2.5s" repeatCount="indefinite"/><text class="o0" x="429" y="18">ツ</text><text class="o1" x="429" y="36">ユ</text><text class="o2" x="429" y="54">エ</text><text class="o3" x="429" y="72">ヘ</text><text class="o4" x="429" y="90">1</text><text class="o5" x="429" y="108">ス</text><text class="o6" x="429" y="126">ロ</text><text class="o7" x="429" y="144">カ</text><text class="o8" x="429" y="162">ホ</text><text class="o9" x="429" y="180">ヨ</text><text class="o10" x="429" y="198">ル</text><text class="h" x="429" y="216">ホ</text></g><g><animateTransform attributeName="transform" type="translate" from="0,-256" to="0,220" dur="3.6s" begin="-0.0s" repeatCount="indefinite"/><text class="o0" x="451" y="18">ツ</text><text class="o1" x="451" y="36">ク</text><text class="o2" x="451" y="54">レ</text><text class="o3" x="451" y="72">ヨ</text><text class="o4" x="451" y="90">サ</text><text class="o5" x="451" y="108">ミ</text><text class="o6" x="451" y="126">ケ</text><text class="o7" x="451" y="144">ト</text><text class="o8" x="451" y="162">ル</text><text class="o9" x="451" y="180">ヒ</text><text class="o10" x="451" y="198">ホ</text><text class="h" x="451" y="216">セ</text></g><g><animateTransform attributeName="transform" type="translate" from="0,-256" to="0,220" dur="3.9s" begin="-2.6s" repeatCount="indefinite"/><text class="o0" x="473" y="18">サ</text><text class="o1" x="473" y="36">ラ</text><text class="o2" x="473" y="54">ハ</text><text class="o3" x="473" y="72">サ</text><text class="o4" x="473" y="90">シ</text><text class="o5" x="473" y="108">ヌ</text><text class="o6" x="473" y="126">ス</text><text class="o7" x="473" y="144">ヤ</text><text class="o8" x="473" y="162">テ</text><text class="o9" x="473" y="180">シ</text><text class="o10" x="473" y="198">キ</text><text class="h" x="473" y="216">キ</text></g><g><animateTransform attributeName="transform" type="translate" from="0,-256" to="0,220" dur="4.7s" begin="-3.9s" repeatCount="indefinite"/><text class="o0" x="495" y="18">ア</text><text class="o1" x="495" y="36">ウ</text><text class="o2" x="495" y="54">タ</text><text class="o3" x="495" y="72">ケ</text><text class="o4" x="495" y="90">カ</text><text class="o5" x="495" y="108">ヒ</text><text class="o6" x="495" y="126">ヘ</text><text class="o7" x="495" y="144">タ</text><text class="o8" x="495" y="162">シ</text><text class="o9" x="495" y="180">ノ</text><text class="o10" x="495" y="198">ヌ</text><text class="h" x="495" y="216">ラ</text></g><g><animateTransform attributeName="transform" type="translate" from="0,-256" to="0,220" dur="4.8s" begin="-3.2s" repeatCount="indefinite"/><text class="o0" x="517" y="18">ヨ</text><text class="o1" x="517" y="36">ヒ</text><text class="o2" x="517" y="54">テ</text><text class="o3" x="517" y="72">ウ</text><text class="o4" x="517" y="90">ア</text><text class="o5" x="517" y="108">タ</text><text class="o6" x="517" y="126">ユ</text><text class="o7" x="517" y="144">ア</text><text class="o8" x="517" y="162">レ</text><text class="o9" x="517" y="180">タ</text><text class="o10" x="517" y="198">モ</text><text class="h" x="517" y="216">ナ</text></g><g><animateTransform attributeName="transform" type="translate" from="0,-256" to="0,220" dur="3.8s" begin="-3.0s" repeatCount="indefinite"/><text class="o0" x="539" y="18">1</text><text class="o1" x="539" y="36">リ</text><text class="o2" x="539" y="54">キ</text><text class="o3" x="539" y="72">ネ</text><text class="o4" x="539" y="90">フ</text><text class="o5" x="539" y="108">サ</text><text class="o6" x="539" y="126">1</text><text class="o7" x="539" y="144">タ</text><text class="o8" x="539" y="162">セ</text><text class="o9" x="539" y="180">ク</text><text class="o10" x="539" y="198">イ</text><text class="h" x="539" y="216">ラ</text></g><g><animateTransform attributeName="transform" type="translate" from="0,-256" to="0,220" dur="2.9s" begin="-0.3s" repeatCount="indefinite"/><text class="o0" x="561" y="18">ム</text><text class="o1" x="561" y="36">リ</text><text class="o2" x="561" y="54">ラ</text><text class="o3" x="561" y="72">ニ</text><text class="o4" x="561" y="90">ウ</text><text class="o5" x="561" y="108">レ</text><text class="o6" x="561" y="126">サ</text><text class="o7" x="561" y="144">サ</text><text class="o8" x="561" y="162">ヘ</text><text class="o9" x="561" y="180">ソ</text><text class="o10" x="561" y="198">コ</text><text class="h" x="561" y="216">0</text></g><g><animateTransform attributeName="transform" type="translate" from="0,-256" to="0,220" dur="5.9s" begin="-3.2s" repeatCount="indefinite"/><text class="o0" x="583" y="18">ア</text><text class="o1" x="583" y="36">コ</text><text class="o2" x="583" y="54">ス</text><text class="o3" x="583" y="72">タ</text><text class="o4" x="583" y="90">ナ</text><text class="o5" x="583" y="108">ム</text><text class="o6" x="583" y="126">ロ</text><text class="o7" x="583" y="144">ミ</text><text class="o8" x="583" y="162">マ</text><text class="o9" x="583" y="180">ヨ</text><text class="o10" x="583" y="198">ケ</text><text class="h" x="583" y="216">ネ</text></g><g><animateTransform attributeName="transform" type="translate" from="0,-256" to="0,220" dur="6.3s" begin="-4.4s" repeatCount="indefinite"/><text class="o0" x="605" y="18">ス</text><text class="o1" x="605" y="36">エ</text><text class="o2" x="605" y="54">ノ</text><text class="o3" x="605" y="72">ヌ</text><text class="o4" x="605" y="90">キ</text><text class="o5" x="605" y="108">ヒ</text><text class="o6" x="605" y="126">フ</text><text class="o7" x="605" y="144">サ</text><text class="o8" x="605" y="162">ラ</text><text class="o9" x="605" y="180">0</text><text class="o10" x="605" y="198">ヌ</text><text class="h" x="605" y="216">メ</text></g><g><animateTransform attributeName="transform" type="translate" from="0,-256" to="0,220" dur="5.0s" begin="-4.4s" repeatCount="indefinite"/><text class="o0" x="627" y="18">ト</text><text class="o1" x="627" y="36">フ</text><text class="o2" x="627" y="54">テ</text><text class="o3" x="627" y="72">リ</text><text class="o4" x="627" y="90">シ</text><text class="o5" x="627" y="108">オ</text><text class="o6" x="627" y="126">リ</text><text class="o7" x="627" y="144">カ</text><text class="o8" x="627" y="162">シ</text><text class="o9" x="627" y="180">セ</text><text class="o10" x="627" y="198">ヌ</text><text class="h" x="627" y="216">エ</text></g><g><animateTransform attributeName="transform" type="translate" from="0,-256" to="0,220" dur="6.9s" begin="-3.7s" repeatCount="indefinite"/><text class="o0" x="649" y="18">テ</text><text class="o1" x="649" y="36">ソ</text><text class="o2" x="649" y="54">1</text><text class="o3" x="649" y="72">ナ</text><text class="o4" x="649" y="90">マ</text><text class="o5" x="649" y="108">エ</text><text class="o6" x="649" y="126">ア</text><text class="o7" x="649" y="144">ヒ</text><text class="o8" x="649" y="162">ト</text><text class="o9" x="649" y="180">メ</text><text class="o10" x="649" y="198">ノ</text><text class="h" x="649" y="216">タ</text></g><g><animateTransform attributeName="transform" type="translate" from="0,-256" to="0,220" dur="4.6s" begin="-0.1s" repeatCount="indefinite"/><text class="o0" x="671" y="18">ウ</text><text class="o1" x="671" y="36">ハ</text><text class="o2" x="671" y="54">ア</text><text class="o3" x="671" y="72">コ</text><text class="o4" x="671" y="90">ム</text><text class="o5" x="671" y="108">ト</text><text class="o6" x="671" y="126">レ</text><text class="o7" x="671" y="144">キ</text><text class="o8" x="671" y="162">ヘ</text><text class="o9" x="671" y="180">ク</text><text class="o10" x="671" y="198">ミ</text><text class="h" x="671" y="216">ミ</text></g><g><animateTransform attributeName="transform" type="translate" from="0,-256" to="0,220" dur="6.3s" begin="-4.3s" repeatCount="indefinite"/><text class="o0" x="693" y="18">ホ</text><text class="o1" x="693" y="36">ヤ</text><text class="o2" x="693" y="54">ロ</text><text class="o3" x="693" y="72">エ</text><text class="o4" x="693" y="90">ス</text><text class="o5" x="693" y="108">ヒ</text><text class="o6" x="693" y="126">ミ</text><text class="o7" x="693" y="144">メ</text><text class="o8" x="693" y="162">チ</text><text class="o9" x="693" y="180">メ</text><text class="o10" x="693" y="198">ラ</text><text class="h" x="693" y="216">ケ</text></g><g><animateTransform attributeName="transform" type="translate" from="0,-256" to="0,220" dur="4.8s" begin="-4.0s" repeatCount="indefinite"/><text class="o0" x="715" y="18">メ</text><text class="o1" x="715" y="36">ソ</text><text class="o2" x="715" y="54">ツ</text><text class="o3" x="715" y="72">ル</text><text class="o4" x="715" y="90">ヌ</text><text class="o5" x="715" y="108">ヨ</text><text class="o6" x="715" y="126">シ</text><text class="o7" x="715" y="144">ツ</text><text class="o8" x="715" y="162">ク</text><text class="o9" x="715" y="180">ム</text><text class="o10" x="715" y="198">ミ</text><text class="h" x="715" y="216">タ</text></g><g><animateTransform attributeName="transform" type="translate" from="0,-256" to="0,220" dur="5.0s" begin="-1.0s" repeatCount="indefinite"/><text class="o0" x="737" y="18">ム</text><text class="o1" x="737" y="36">カ</text><text class="o2" x="737" y="54">マ</text><text class="o3" x="737" y="72">0</text><text class="o4" x="737" y="90">ユ</text><text class="o5" x="737" y="108">ヌ</text><text class="o6" x="737" y="126">1</text><text class="o7" x="737" y="144">ム</text><text class="o8" x="737" y="162">ア</text><text class="o9" x="737" y="180">ミ</text><text class="o10" x="737" y="198">ネ</text><text class="h" x="737" y="216">ム</text></g><g><animateTransform attributeName="transform" type="translate" from="0,-256" to="0,220" dur="6.1s" begin="-3.4s" repeatCount="indefinite"/><text class="o0" x="759" y="18">ホ</text><text class="o1" x="759" y="36">エ</text><text class="o2" x="759" y="54">ロ</text><text class="o3" x="759" y="72">ケ</text><text class="o4" x="759" y="90">ウ</text><text class="o5" x="759" y="108">ム</text><text class="o6" x="759" y="126">フ</text><text class="o7" x="759" y="144">ノ</text><text class="o8" x="759" y="162">ネ</text><text class="o9" x="759" y="180">タ</text><text class="o10" x="759" y="198">セ</text><text class="h" x="759" y="216">ヘ</text></g><g><animateTransform attributeName="transform" type="translate" from="0,-256" to="0,220" dur="4.7s" begin="-1.6s" repeatCount="indefinite"/><text class="o0" x="781" y="18">ヘ</text><text class="o1" x="781" y="36">ミ</text><text class="o2" x="781" y="54">テ</text><text class="o3" x="781" y="72">オ</text><text class="o4" x="781" y="90">サ</text><text class="o5" x="781" y="108">ノ</text><text class="o6" x="781" y="126">ヨ</text><text class="o7" x="781" y="144">1</text><text class="o8" x="781" y="162">ソ</text><text class="o9" x="781" y="180">キ</text><text class="o10" x="781" y="198">ロ</text><text class="h" x="781" y="216">1</text></g></svg>
